# xmcd CD database file
# Copyright (C) 1998 Ti Kan
# 
# Track frame offsets:
#     182
#     15997
#     28960
#     41210
#     54485
#     65607
#     76857
#     85895
#     103345
#     113375
#     121717
#     132752
#     144450
#     157555
#     169690
#     181462
#     192892
#     199200
#     213630
#     223327
# 
# Disc length: 3091 seconds
# 
# Revision: 1
# Processed by: cddbd v1.4b41PL1 Copyright (c) Steve Scherf et al.
# Submitted via: DiscPlay 4.0.4
# 
DISCID=160c1114
DTITLE=Hank Williams - Hank Williams Golden Memories
DYEAR=1900
DGENRE=
TTITLE0=Thy Burdens Are Greater Than Mine
TTITLE1=A Picture From Life's Other Side
TTITLE2=Lost Highway
TTITLE3=Help Me Understand
TTITLE4=House of Gold
TTITLE5=Battle Of Armageddon
TTITLE6=I'm Going Home
TTITLE7=A Tramp On The Street
TTITLE8=Ready To Go Home
TTITLE9=I'm Gonna Sing
TTITLE10=The Prodigal Son
TTITLE11=I Heard My Mother Praying For Me
TTITLE12=Calling You
TTITLE13=Message To My Mother
TTITLE14=Lost On The River
TTITLE15=The Angel Of Death
TTITLE16=Last Night I Dreamed Of Heaven
TTITLE17=Men With Broken Hearts
TTITLE18=We're Getting Closer To The Grave Each Day
TTITLE19=Where The Soul O Man Never Dies
EXTD=
EXTT0=
EXTT1=
EXTT2=
EXTT3=
EXTT4=
EXTT5=
EXTT6=
EXTT7=
EXTT8=
EXTT9=
EXTT10=
EXTT11=
EXTT12=
EXTT13=
EXTT14=
EXTT15=
EXTT16=
EXTT17=
EXTT18=
EXTT19=
PLAYORDER=
